<svg width="512" height="512" viewBox="0 0 512 512" fill="none" xmlns="http://www.w3.org/2000/svg">
<g clip-path="url(#clip0)">
<path d="M145.323 297.323H199.04V495.979C199.04 504.811 206.187 511.979 215.04 511.979L300.523 512C309.376 512 316.523 504.811 316.523 496V297.344H367.445C375.509 297.344 382.315 291.328 383.317 283.328L393.941 197.995C395.136 188.48 387.691 180.011 378.069 180.011H316.523C318.933 127.296 307.243 111.701 341.525 111.701C364.736 108.928 401.344 120.683 401.344 95.7013V19.392C401.344 11.392 395.435 4.62933 387.52 3.54133C380.821 2.624 354.347 0 321.515 0C171.968 0 202.752 165.803 199.061 179.989H145.323C136.491 179.989 129.323 187.157 129.323 195.989V281.323C129.323 290.155 136.491 297.323 145.323 297.323ZM161.323 212.011H215.04C223.872 212.011 231.04 204.843 231.04 196.011V128.789C231.04 67.2853 264 32.0213 321.493 32.0213C340.224 32.0213 357.461 32.9387 369.323 33.8773V79.7227C360.747 84.096 284.501 60.864 284.501 137.259V196.032C284.501 204.864 291.669 212.032 300.501 212.032H359.936L353.28 265.365H300.501C291.669 265.365 284.501 272.533 284.501 281.365V480H231.061V281.344C231.061 272.512 223.893 265.344 215.061 265.344H161.323V212.011Z" fill="white"/>
</g>
<defs>
<clipPath id="clip0">
<rect width="512" height="512" fill="white"/>
</clipPath>
</defs>
</svg>
