<svg width="9" height="11" viewBox="0 0 9 11" fill="none" xmlns="http://www.w3.org/2000/svg">
<g clip-path="url(#clip0)">
<path d="M2.55487 5.9605H3.49912V9.91034C3.49912 10.0859 3.62475 10.2285 3.78037 10.2285L5.283 10.2289C5.43862 10.2289 5.56425 10.0859 5.56425 9.91077V5.96093H6.45937C6.60112 5.96093 6.72075 5.84131 6.73837 5.68225L6.92512 3.98558C6.94612 3.7964 6.81525 3.62801 6.64612 3.62801H5.56425C5.60662 2.57989 5.40112 2.26983 6.00375 2.26983C6.41175 2.21468 7.05525 2.4484 7.05525 1.9517V0.434457C7.05525 0.275394 6.95137 0.140933 6.81225 0.119301C6.6945 0.101062 6.22912 0.0488892 5.652 0.0488892C3.02325 0.0488892 3.56437 3.34551 3.4995 3.62758H2.55487C2.39962 3.62758 2.27362 3.7701 2.27362 3.94571V5.64238C2.27362 5.81798 2.39962 5.9605 2.55487 5.9605ZM2.83612 4.26426H3.78037C3.93562 4.26426 4.06162 4.12174 4.06162 3.94613V2.60958C4.06162 1.38671 4.641 0.685564 5.65162 0.685564C5.98087 0.685564 6.28387 0.703803 6.49237 0.722466V1.634C6.34162 1.72095 5.00137 1.25904 5.00137 2.77798V3.94656C5.00137 4.12216 5.12737 4.26468 5.28262 4.26468H6.32737L6.21037 5.3251H5.28262C5.12737 5.3251 5.00137 5.46762 5.00137 5.64323V9.59264H4.062V5.6428C4.062 5.4672 3.936 5.32468 3.78075 5.32468H2.83612V4.26426Z" fill="black"/>
</g>
<defs>
<clipPath id="clip0">
<rect width="9" height="10.18" fill="white" transform="translate(0 0.0488892)"/>
</clipPath>
</defs>
</svg>
