<svg width="9" height="9" viewBox="0 0 9 9" fill="none" xmlns="http://www.w3.org/2000/svg">
<path d="M6.56377 0H2.43621C1.09286 0 0 1.09286 0 2.43621V6.56384C0 7.90712 1.09286 8.99998 2.43621 8.99998H6.56384C7.90712 8.99998 8.99998 7.90712 8.99998 6.56384V2.43621C8.99998 1.09286 7.90712 0 6.56377 0V0ZM8.47237 6.56384C8.47237 7.61619 7.61619 8.47237 6.56377 8.47237H2.43621C1.38379 8.47237 0.527617 7.61619 0.527617 6.56384V2.43621C0.527617 1.38379 1.38379 0.527617 2.43621 0.527617H6.56384C7.61619 0.527617 8.47237 1.38379 8.47237 2.43621V6.56384Z" fill="black"/>
<path d="M4.50032 2.03915C3.14338 2.03915 2.03946 3.14307 2.03946 4.50002C2.03946 5.85696 3.14338 6.96088 4.50032 6.96088C5.85727 6.96088 6.96119 5.85696 6.96119 4.50002C6.96119 3.14307 5.85727 2.03915 4.50032 2.03915ZM4.50032 6.43326C3.43438 6.43326 2.56708 5.56603 2.56708 4.50002C2.56708 3.43407 3.43438 2.56677 4.50032 2.56677C5.56634 2.56677 6.43357 3.43407 6.43357 4.50002C6.43357 5.56603 5.56634 6.43326 4.50032 6.43326Z" fill="black"/>
<path d="M7.02003 1.16516C6.61903 1.16516 6.29288 1.49139 6.29288 1.89232C6.29288 2.29332 6.61903 2.61954 7.02003 2.61954C7.42103 2.61954 7.74726 2.29332 7.74726 1.89232C7.74726 1.49132 7.42103 1.16516 7.02003 1.16516ZM7.02003 2.09186C6.91003 2.09186 6.82049 2.00232 6.82049 1.89232C6.82049 1.78225 6.91003 1.69278 7.02003 1.69278C7.1301 1.69278 7.21964 1.78225 7.21964 1.89232C7.21964 2.00232 7.1301 2.09186 7.02003 2.09186Z" fill="black"/>
</svg>
