<svg width="9" height="9" viewBox="0 0 9 9" fill="none" xmlns="http://www.w3.org/2000/svg">
<g clip-path="url(#clip0)">
<path d="M8.94839 1.65895C8.90257 1.61312 8.82619 1.59784 8.76507 1.61312L8.45955 1.72006C8.64287 1.5062 8.76507 1.27706 8.84145 1.0632C8.87201 0.98682 8.85673 0.925719 8.81089 0.879881C8.76507 0.83406 8.68869 0.81878 8.62757 0.849322C8.19985 1.03264 7.83323 1.1854 7.52771 1.27704C7.52771 1.29232 7.51243 1.27704 7.49715 1.27704C7.25273 1.13956 6.65697 0.834042 6.22925 0.834042C5.14464 0.849322 4.27392 1.76588 4.27392 2.88103V2.94213C2.68521 2.63661 1.81449 2.17833 0.867368 1.18538L0.714642 1.03262L0.622983 1.21594C0.103601 2.20889 0.470222 3.11017 1.06598 3.72121C0.791023 3.67539 0.607703 3.58373 0.439663 3.44625C0.378562 3.40043 0.302182 3.38515 0.225802 3.43097C0.164701 3.46153 0.134142 3.55317 0.149422 3.62955C0.363283 4.34752 0.897944 4.92802 1.47843 5.27936C1.20347 5.27936 0.974325 5.2488 0.745184 5.09604C0.684083 5.06548 0.592423 5.06548 0.531323 5.11132C0.470222 5.15716 0.439663 5.23352 0.470222 5.3099C0.745184 6.08898 1.27985 6.50142 2.13531 6.60836C1.69231 6.86806 1.11182 7.08192 0.21054 7.0972C0.11888 7.0972 0.0424999 7.15831 0.0119583 7.23469C-0.0186008 7.32635 0.0119583 7.40273 0.073059 7.46383C0.623 7.90683 1.84507 8.16653 3.35739 8.16653C6.04596 8.16653 8.24571 5.7682 8.24571 2.81993V2.77411C8.58179 2.60607 8.85675 2.28527 8.99423 1.84226C9.00949 1.78115 8.99421 1.70477 8.94839 1.65895ZM8.03183 2.52967L7.94017 2.56023V2.81993C7.94017 5.60016 5.8779 7.86101 3.35737 7.86101C1.96725 7.86101 1.03543 7.63187 0.531323 7.38745C1.58537 7.31107 2.19641 6.97499 2.66997 6.60836L3.05187 6.3334H2.59359C1.72286 6.3334 1.1882 6.08898 0.882682 5.5085C1.15764 5.60016 1.44789 5.60016 1.76869 5.58488C1.89089 5.5696 2.01311 5.5696 2.13531 5.5696L2.18113 5.26408C1.60065 5.09604 0.913224 4.57666 0.577144 3.87397C0.882665 4.01145 1.21873 4.04201 1.52425 4.04201H1.99781L1.61593 3.76703C1.29513 3.53789 0.348021 2.72827 0.806302 1.56729C1.78397 2.52967 2.71581 2.97267 4.39616 3.27819L4.57948 3.30875V2.88103C4.57948 1.93392 5.31272 1.15484 6.22928 1.13956C6.58062 1.12428 7.16112 1.44508 7.32915 1.53674C7.42081 1.58257 7.51247 1.59784 7.60411 1.5673C7.83325 1.49092 8.10821 1.38398 8.41373 1.26178C8.27625 1.49092 8.09293 1.70478 7.84853 1.90338C7.78743 1.9492 7.77215 2.04086 7.80271 2.11724C7.83327 2.19362 7.92491 2.22418 8.00129 2.19362L8.59705 1.99504C8.49011 2.19361 8.32207 2.42275 8.03183 2.52967Z" fill="black"/>
</g>
<defs>
<clipPath id="clip0">
<rect width="9" height="9" fill="white"/>
</clipPath>
</defs>
</svg>
