<svg width="512" height="512" viewBox="0 0 512 512" fill="none" xmlns="http://www.w3.org/2000/svg">
<g clip-path="url(#clip0)">
<path d="M497.322 89.2145L497.21 89.2424L497.102 89.2803L487.929 92.4909C495.583 82.1445 500.981 71.4207 504.606 61.2835C505.6 58.7794 505.91 56.3573 505.484 54.0815C505.053 51.7835 503.905 49.8248 502.299 48.2181C498.992 44.9118 493.541 43.7844 489.069 45.979C464.775 56.391 444.1 64.9995 426.918 70.1533L426.872 70.1669C426.817 70.1536 426.758 70.1408 426.698 70.1287C419.644 66.1784 407.824 59.9782 394.723 54.7163C381.414 49.3706 366.515 44.8819 353.873 44.8819H353.855L353.838 44.8821C290.779 45.7705 240.295 99.0298 240.295 163.667V164.105C196.748 155.552 162.938 144.899 133.518 129.664C103.447 114.091 77.846 93.671 51.0851 65.6154L51.0648 65.5941L51.044 65.5733L42.368 56.8953L39.9153 54.4421L38.364 57.5449L33.1671 67.9385C4.62911 122.518 22.3012 172.329 53.3863 207.356C42.2709 204.547 34.1446 200.045 26.5621 193.841L26.5212 193.808L26.4789 193.776C22.393 190.712 16.9839 189.544 11.6227 192.717C9.1975 193.966 7.57976 196.287 6.68759 198.708C5.7763 201.181 5.51078 204.036 6.03961 206.679L6.0622 206.792L6.09507 206.903C17.5094 245.222 44.6822 276.663 75.0592 297.165C63.5892 296.46 53.6506 294.036 43.7218 287.417L43.5924 287.331L43.4533 287.261C39.2798 285.174 33.0356 285.102 28.6858 288.365C24.4913 291.512 22.1788 296.97 24.3739 302.524C32.3112 324.992 44.0528 342.331 60.1088 354.819C74.5487 366.05 92.3376 373.248 113.684 376.824C89.7058 389.71 58.4757 399.887 11.9411 400.679C5.60256 400.689 0.42669 404.894 -1.63926 410.061L-1.66646 410.129L-1.68963 410.198C-3.79548 416.515 -1.58212 421.806 2.38527 425.774L2.48019 425.869L2.58473 425.953C18.654 438.897 44.2693 448.982 76.4173 455.848C108.627 462.726 147.641 466.425 190.729 466.425C345.046 466.425 470.924 328.848 470.924 160.196V159.12C490.05 149.064 505.53 130.544 513.334 105.398L513.355 105.331L513.372 105.263C514.414 101.09 513.436 95.8014 510.11 92.4751C506.784 89.1489 501.495 88.1712 497.322 89.2145ZM427.884 70.5017C427.883 70.5012 427.881 70.5006 427.879 70.5C427.889 70.503 427.891 70.5039 427.884 70.5017ZM455.395 126.967L482.891 117.802C476.966 127.179 468.445 136.548 455.446 141.348L450.276 143.071L448.567 143.641V145.443V160.196C448.567 316.981 332.317 444.069 190.728 444.069C119.521 444.069 69.7547 433.449 40.0404 421.312C94.5939 415.67 127.431 397.336 153.174 377.412L174.834 361.818L181.124 357.289H173.373H147.339C122.815 357.289 103.265 353.843 87.7769 346.467C74.1019 339.955 63.4755 330.325 55.3575 317.049C69.65 320.646 84.6089 320.526 100.597 319.764L100.693 319.76L100.788 319.748C107.55 318.902 114.338 318.899 121.305 318.899H123.458L123.777 316.77L126.38 299.414L126.705 297.25L124.603 296.641C93.9281 287.762 57.7178 261.15 38.0623 224.911C54.118 230.761 71.1444 232.12 86.592 232.12H113.494H121.244L114.955 227.591L93.2609 211.97L93.2531 211.965C84.2811 205.556 66.5893 191.048 54.3658 170.108C42.6426 150.025 35.9608 124.077 46.8029 93.5022C101.792 146.748 155.035 171.551 249.292 188.689L249.31 188.692L249.328 188.695L259.742 190.431L262.653 190.916V187.965V163.667C262.653 111.135 303.304 68.0813 353.917 67.2375L353.95 67.237L353.984 67.2355C363.345 66.8284 376.117 70.9463 388.038 76.0402C399.42 80.9031 409.617 86.4701 414.618 89.2003L415.159 89.4956L415.198 89.517L415.238 89.5371C420.855 92.3447 426.761 93.4103 432.766 91.4087L431.976 89.0369L432.767 91.4086C444.014 87.6596 457.169 82.6303 471.655 76.887C464.572 87.2088 455.628 96.9663 444.319 106.16C439.738 109.631 438.911 116.144 440.937 121.207C443.264 127.022 450.018 129.075 455.395 126.967Z" fill="white" stroke="white" stroke-width="5"/>
</g>
<defs>
<clipPath id="clip0">
<rect width="511.271" height="511.271" fill="white"/>
</clipPath>
</defs>
</svg>
