<svg width="185" height="45" viewBox="0 0 185 45" fill="none" xmlns="http://www.w3.org/2000/svg">
<path d="M44.543 40.9922H43.8008V43H42.4297V37.3125H44.668C45.3424 37.3125 45.8698 37.4622 46.25 37.7617C46.6302 38.0612 46.8203 38.4844 46.8203 39.0312C46.8203 39.4271 46.7396 39.7552 46.5781 40.0156C46.4193 40.276 46.1693 40.487 45.8281 40.6484L47.0156 42.9414V43H45.5469L44.543 40.9922ZM43.8008 39.9336H44.668C44.9284 39.9336 45.1237 39.8659 45.2539 39.7305C45.3867 39.5924 45.4531 39.401 45.4531 39.1562C45.4531 38.9115 45.3867 38.7201 45.2539 38.582C45.1211 38.4414 44.9258 38.3711 44.668 38.3711H43.8008V39.9336ZM51.1758 40.5898H49.0195V41.9453H51.5664V43H47.6484V37.3125H51.5742V38.3711H49.0195V39.5703H51.1758V40.5898ZM55.0586 41.4883C55.0586 41.2878 54.987 41.1315 54.8438 41.0195C54.7031 40.9076 54.4544 40.7917 54.0977 40.6719C53.7409 40.5521 53.4492 40.4362 53.2227 40.3242C52.4857 39.9622 52.1172 39.4648 52.1172 38.832C52.1172 38.5169 52.2083 38.2396 52.3906 38C52.5755 37.7578 52.8359 37.5703 53.1719 37.4375C53.5078 37.3021 53.8854 37.2344 54.3047 37.2344C54.7135 37.2344 55.0794 37.3073 55.4023 37.4531C55.7279 37.599 55.9805 37.8073 56.1602 38.0781C56.3398 38.3464 56.4297 38.6536 56.4297 39H55.0625C55.0625 38.7682 54.9909 38.5885 54.8477 38.4609C54.707 38.3333 54.5156 38.2695 54.2734 38.2695C54.0286 38.2695 53.8346 38.3242 53.6914 38.4336C53.5508 38.5404 53.4805 38.6771 53.4805 38.8438C53.4805 38.9896 53.5586 39.1224 53.7148 39.2422C53.8711 39.3594 54.1458 39.4818 54.5391 39.6094C54.9323 39.7344 55.2552 39.8698 55.5078 40.0156C56.1224 40.3698 56.4297 40.8581 56.4297 41.4805C56.4297 41.9779 56.2422 42.3685 55.8672 42.6523C55.4922 42.9362 54.9779 43.0781 54.3242 43.0781C53.8633 43.0781 53.4453 42.9961 53.0703 42.832C52.6979 42.6654 52.4167 42.4388 52.2266 42.1523C52.0391 41.8633 51.9453 41.5312 51.9453 41.1562H53.3203C53.3203 41.4609 53.3984 41.6862 53.5547 41.832C53.7135 41.9753 53.9701 42.0469 54.3242 42.0469C54.5508 42.0469 54.7292 41.9987 54.8594 41.9023C54.9922 41.8034 55.0586 41.6654 55.0586 41.4883ZM58.5938 43H57.2266V37.3125H58.5938V43ZM62.4805 41.4883C62.4805 41.2878 62.4089 41.1315 62.2656 41.0195C62.125 40.9076 61.8763 40.7917 61.5195 40.6719C61.1628 40.5521 60.8711 40.4362 60.6445 40.3242C59.9076 39.9622 59.5391 39.4648 59.5391 38.832C59.5391 38.5169 59.6302 38.2396 59.8125 38C59.9974 37.7578 60.2578 37.5703 60.5938 37.4375C60.9297 37.3021 61.3073 37.2344 61.7266 37.2344C62.1354 37.2344 62.5013 37.3073 62.8242 37.4531C63.1497 37.599 63.4023 37.8073 63.582 38.0781C63.7617 38.3464 63.8516 38.6536 63.8516 39H62.4844C62.4844 38.7682 62.4128 38.5885 62.2695 38.4609C62.1289 38.3333 61.9375 38.2695 61.6953 38.2695C61.4505 38.2695 61.2565 38.3242 61.1133 38.4336C60.9727 38.5404 60.9023 38.6771 60.9023 38.8438C60.9023 38.9896 60.9805 39.1224 61.1367 39.2422C61.293 39.3594 61.5677 39.4818 61.9609 39.6094C62.3542 39.7344 62.6771 39.8698 62.9297 40.0156C63.5443 40.3698 63.8516 40.8581 63.8516 41.4805C63.8516 41.9779 63.6641 42.3685 63.2891 42.6523C62.9141 42.9362 62.3997 43.0781 61.7461 43.0781C61.2852 43.0781 60.8672 42.9961 60.4922 42.832C60.1198 42.6654 59.8385 42.4388 59.6484 42.1523C59.4609 41.8633 59.3672 41.5312 59.3672 41.1562H60.7422C60.7422 41.4609 60.8203 41.6862 60.9766 41.832C61.1354 41.9753 61.3919 42.0469 61.7461 42.0469C61.9727 42.0469 62.151 41.9987 62.2812 41.9023C62.4141 41.8034 62.4805 41.6654 62.4805 41.4883ZM69.0195 38.3711H67.3125V43H65.9414V38.3711H64.2656V37.3125H69.0195V38.3711ZM69.3477 41.7227C69.556 41.7227 69.7292 41.7852 69.8672 41.9102C70.0052 42.0326 70.0742 42.1901 70.0742 42.3828C70.0742 42.5755 70.0052 42.7344 69.8672 42.8594C69.7292 42.9818 69.556 43.043 69.3477 43.043C69.1367 43.043 68.9622 42.9805 68.8242 42.8555C68.6888 42.7305 68.6211 42.5729 68.6211 42.3828C68.6211 42.1927 68.6888 42.0352 68.8242 41.9102C68.9622 41.7852 69.1367 41.7227 69.3477 41.7227ZM75.1211 40.9922H74.3789V43H73.0078V37.3125H75.2461C75.9206 37.3125 76.4479 37.4622 76.8281 37.7617C77.2083 38.0612 77.3984 38.4844 77.3984 39.0312C77.3984 39.4271 77.3177 39.7552 77.1562 40.0156C76.9974 40.276 76.7474 40.487 76.4062 40.6484L77.5938 42.9414V43H76.125L75.1211 40.9922ZM74.3789 39.9336H75.2461C75.5065 39.9336 75.7018 39.8659 75.832 39.7305C75.9648 39.5924 76.0312 39.401 76.0312 39.1562C76.0312 38.9115 75.9648 38.7201 75.832 38.582C75.6992 38.4414 75.5039 38.3711 75.2461 38.3711H74.3789V39.9336ZM81.7539 40.5898H79.5977V41.9453H82.1445V43H78.2266V37.3125H82.1523V38.3711H79.5977V39.5703H81.7539V40.5898ZM87.3047 41.0742C87.2865 41.4701 87.1797 41.8203 86.9844 42.125C86.7891 42.4271 86.5143 42.6615 86.1602 42.8281C85.8086 42.9948 85.4062 43.0781 84.9531 43.0781C84.2057 43.0781 83.6172 42.8346 83.1875 42.3477C82.7578 41.8607 82.543 41.1732 82.543 40.2852V40.0039C82.543 39.4466 82.6393 38.9596 82.832 38.543C83.0273 38.1237 83.3073 37.8008 83.6719 37.5742C84.0365 37.3451 84.4583 37.2305 84.9375 37.2305C85.6276 37.2305 86.1823 37.4128 86.6016 37.7773C87.0208 38.1393 87.2591 38.6393 87.3164 39.2773H85.9492C85.9388 38.931 85.8516 38.6823 85.6875 38.5312C85.5234 38.3802 85.2734 38.3047 84.9375 38.3047C84.5964 38.3047 84.3464 38.4323 84.1875 38.6875C84.0286 38.9427 83.9453 39.3503 83.9375 39.9102V40.3125C83.9375 40.9193 84.013 41.3529 84.1641 41.6133C84.3177 41.8737 84.5807 42.0039 84.9531 42.0039C85.2682 42.0039 85.5091 41.9297 85.6758 41.7812C85.8424 41.6328 85.931 41.3971 85.9414 41.0742H87.3047ZM89.3242 41.9453H91.7109V43H87.9531V37.3125H89.3242V41.9453ZM95.5977 41.9375H93.7188L93.3906 43H91.9258L94.0117 37.3125H95.3008L97.4023 43H95.9297L95.5977 41.9375ZM94.0469 40.8789H95.2695L94.6562 38.9062L94.0469 40.8789ZM99.2812 43H97.9141V37.3125H99.2812V43ZM102.035 37.3125L103.305 41.2695L104.57 37.3125H106.375V43H105V41.6719L105.133 38.9531L103.758 43H102.852L101.473 38.9492L101.605 41.6719V43H100.234V37.3125H102.035ZM108.004 41.7227C108.212 41.7227 108.385 41.7852 108.523 41.9102C108.661 42.0326 108.73 42.1901 108.73 42.3828C108.73 42.5755 108.661 42.7344 108.523 42.8594C108.385 42.9818 108.212 43.043 108.004 43.043C107.793 43.043 107.618 42.9805 107.48 42.8555C107.345 42.7305 107.277 42.5729 107.277 42.3828C107.277 42.1927 107.345 42.0352 107.48 41.9102C107.618 41.7852 107.793 41.7227 108.004 41.7227ZM113.777 40.9922H113.035V43H111.664V37.3125H113.902C114.577 37.3125 115.104 37.4622 115.484 37.7617C115.865 38.0612 116.055 38.4844 116.055 39.0312C116.055 39.4271 115.974 39.7552 115.812 40.0156C115.654 40.276 115.404 40.487 115.062 40.6484L116.25 42.9414V43H114.781L113.777 40.9922ZM113.035 39.9336H113.902C114.163 39.9336 114.358 39.8659 114.488 39.7305C114.621 39.5924 114.688 39.401 114.688 39.1562C114.688 38.9115 114.621 38.7201 114.488 38.582C114.355 38.4414 114.16 38.3711 113.902 38.3711H113.035V39.9336ZM120.41 40.5898H118.254V41.9453H120.801V43H116.883V37.3125H120.809V38.3711H118.254V39.5703H120.41V40.5898ZM121.359 43V37.3125H123.402C124.134 37.3125 124.69 37.4466 125.07 37.7148C125.453 37.9831 125.645 38.3724 125.645 38.8828C125.645 39.1771 125.577 39.4284 125.441 39.6367C125.306 39.8451 125.107 39.9987 124.844 40.0977C125.141 40.1758 125.368 40.3216 125.527 40.5352C125.686 40.7487 125.766 41.0091 125.766 41.3164C125.766 41.8737 125.589 42.293 125.234 42.5742C124.883 42.8529 124.361 42.9948 123.668 43H121.359ZM122.73 40.582V41.9453H123.629C123.876 41.9453 124.066 41.8893 124.199 41.7773C124.332 41.6628 124.398 41.5026 124.398 41.2969C124.398 40.8229 124.163 40.5846 123.691 40.582H122.73ZM122.73 39.6836H123.445C123.745 39.681 123.958 39.6263 124.086 39.5195C124.214 39.4128 124.277 39.2552 124.277 39.0469C124.277 38.8073 124.208 38.6354 124.07 38.5312C123.932 38.4245 123.71 38.3711 123.402 38.3711H122.73V39.6836ZM130.984 37.3125V41.0352C130.984 41.457 130.895 41.8229 130.715 42.1328C130.535 42.4401 130.277 42.6745 129.941 42.8359C129.605 42.9974 129.208 43.0781 128.75 43.0781C128.057 43.0781 127.512 42.8984 127.113 42.5391C126.715 42.1797 126.512 41.6875 126.504 41.0625V37.3125H127.883V41.0898C127.898 41.7122 128.188 42.0234 128.75 42.0234C129.034 42.0234 129.249 41.9453 129.395 41.7891C129.54 41.6328 129.613 41.3789 129.613 41.0273V37.3125H130.984ZM133.305 43H131.938V37.3125H133.305V43ZM135.629 41.9453H138.016V43H134.258V37.3125H135.629V41.9453ZM138.594 43V37.3125H140.426C140.928 37.3125 141.38 37.4271 141.781 37.6562C142.182 37.8828 142.495 38.2044 142.719 38.6211C142.945 39.0352 143.06 39.5 143.062 40.0156V40.2773C143.062 40.7982 142.952 41.2656 142.73 41.6797C142.512 42.0911 142.202 42.4141 141.801 42.6484C141.402 42.8802 140.957 42.9974 140.465 43H138.594ZM139.965 38.3711V41.9453H140.441C140.835 41.9453 141.137 41.806 141.348 41.5273C141.559 41.2461 141.664 40.8294 141.664 40.2773V40.0312C141.664 39.4818 141.559 39.0677 141.348 38.7891C141.137 38.5104 140.829 38.3711 140.426 38.3711H139.965Z" fill="black"/>
<path d="M18.7393 20.7808L21.2671 6.96094H26.5347L21.8574 29H16.3477L13.396 16.4365L10.5049 29H5.01025L0.317871 6.96094H5.60059L8.12842 20.7808L11.1558 6.96094H15.6665L18.7393 20.7808ZM42.2769 19.6606H33.9214V24.9131H43.7905V29H28.6084V6.96094H43.8208V11.063H33.9214V15.71H42.2769V19.6606ZM57.3228 23.1421C57.3228 22.3651 57.0452 21.7596 56.4902 21.3257C55.9453 20.8918 54.9816 20.4427 53.5991 19.9785C52.2166 19.5143 51.0864 19.0653 50.2085 18.6313C47.3527 17.2287 45.9248 15.3013 45.9248 12.8491C45.9248 11.6281 46.278 10.5534 46.9844 9.625C47.7008 8.68652 48.71 7.95996 50.0117 7.44531C51.3135 6.92057 52.7767 6.6582 54.4014 6.6582C55.9857 6.6582 57.4035 6.94076 58.6548 7.50586C59.9162 8.07096 60.895 8.87826 61.5913 9.92773C62.2876 10.9671 62.6357 12.1579 62.6357 13.5H57.3379C57.3379 12.6019 57.0604 11.9056 56.5054 11.4111C55.9604 10.9167 55.2188 10.6694 54.2803 10.6694C53.3317 10.6694 52.5799 10.8813 52.0249 11.3052C51.48 11.7189 51.2075 12.2487 51.2075 12.8945C51.2075 13.4596 51.5103 13.9743 52.1157 14.4385C52.7212 14.8926 53.7858 15.3669 55.3096 15.8613C56.8333 16.3457 58.0846 16.8704 59.0635 17.4355C61.445 18.8079 62.6357 20.7 62.6357 23.1118C62.6357 25.0392 61.9092 26.5529 60.4561 27.6528C59.0029 28.7528 57.0099 29.3027 54.4771 29.3027C52.6909 29.3027 51.0713 28.9849 49.6182 28.3491C48.1751 27.7033 47.0853 26.8254 46.3486 25.7153C45.6221 24.5952 45.2588 23.3086 45.2588 21.8555H50.5869C50.5869 23.0361 50.8896 23.909 51.4951 24.4741C52.1107 25.0291 53.1047 25.3066 54.4771 25.3066C55.355 25.3066 56.0462 25.12 56.5508 24.7466C57.0654 24.3631 57.3228 23.8283 57.3228 23.1421ZM82.6616 11.063H76.0469V29H70.7339V11.063H64.2402V6.96094H82.6616V11.063ZM119.943 20.7808L122.471 6.96094H127.739L123.062 29H117.552L114.6 16.4365L111.709 29H106.214L101.522 6.96094H106.805L109.333 20.7808L112.36 6.96094H116.871L119.943 20.7808ZM143.481 19.6606H135.125V24.9131H144.995V29H129.812V6.96094H145.025V11.063H135.125V15.71H143.481V19.6606ZM158.527 23.1421C158.527 22.3651 158.249 21.7596 157.694 21.3257C157.149 20.8918 156.186 20.4427 154.803 19.9785C153.421 19.5143 152.291 19.0653 151.413 18.6313C148.557 17.2287 147.129 15.3013 147.129 12.8491C147.129 11.6281 147.482 10.5534 148.188 9.625C148.905 8.68652 149.914 7.95996 151.216 7.44531C152.518 6.92057 153.981 6.6582 155.605 6.6582C157.19 6.6582 158.608 6.94076 159.859 7.50586C161.12 8.07096 162.099 8.87826 162.795 9.92773C163.492 10.9671 163.84 12.1579 163.84 13.5H158.542C158.542 12.6019 158.264 11.9056 157.709 11.4111C157.165 10.9167 156.423 10.6694 155.484 10.6694C154.536 10.6694 153.784 10.8813 153.229 11.3052C152.684 11.7189 152.412 12.2487 152.412 12.8945C152.412 13.4596 152.714 13.9743 153.32 14.4385C153.925 14.8926 154.99 15.3669 156.514 15.8613C158.037 16.3457 159.289 16.8704 160.268 17.4355C162.649 18.8079 163.84 20.7 163.84 23.1118C163.84 25.0392 163.113 26.5529 161.66 27.6528C160.207 28.7528 158.214 29.3027 155.681 29.3027C153.895 29.3027 152.275 28.9849 150.822 28.3491C149.379 27.7033 148.289 26.8254 147.553 25.7153C146.826 24.5952 146.463 23.3086 146.463 21.8555H151.791C151.791 23.0361 152.094 23.909 152.699 24.4741C153.315 25.0291 154.309 25.3066 155.681 25.3066C156.559 25.3066 157.25 25.12 157.755 24.7466C158.27 24.3631 158.527 23.8283 158.527 23.1421ZM183.866 11.063H177.251V29H171.938V11.063H165.444V6.96094H183.866V11.063Z" fill="black"/>
<path d="M99.978 29H84.5991V25.6699L91.6831 18.2227C93.4289 16.2347 94.3018 14.6554 94.3018 13.4849C94.3018 12.5363 94.0949 11.8148 93.6812 11.3203C93.2674 10.8258 92.667 10.5786 91.8799 10.5786C91.1029 10.5786 90.4722 10.9116 89.9878 11.5776C89.5034 12.2336 89.2612 13.056 89.2612 14.0449H84.145C84.145 12.6927 84.4831 11.4465 85.1592 10.3062C85.8353 9.15576 86.7738 8.25765 87.9746 7.61182C89.1755 6.96598 90.5176 6.64307 92.001 6.64307C94.3825 6.64307 96.214 7.19303 97.4956 8.29297C98.7873 9.3929 99.4331 10.9722 99.4331 13.0308C99.4331 13.8986 99.2716 14.7463 98.9487 15.5737C98.6258 16.3911 98.1213 17.2539 97.4351 18.1621C96.759 19.0602 95.6641 20.2661 94.1504 21.7798L91.3047 25.0645H99.978V29Z" fill="#9200EC"/>
</svg>
